HIERARCHY
ROOT hip
{
	OFFSET 0.000000 0.000000 0.000000
	CHANNELS 6 Xposition Yposition Zposition Xrotation Zrotation Yrotation 
	JOINT abdomen
	{
		OFFSET 0.000000 3.422050 0.000000
		CHANNELS 3 Xrotation Zrotation Yrotation 
		JOINT chest
		{
			OFFSET 0.000000 8.486693 -0.684411
			CHANNELS 3 Xrotation Zrotation Yrotation 
			JOINT neck
			{
				OFFSET 0.000000 10.266162 -0.273764
				CHANNELS 3 Xrotation Zrotation Yrotation 
				JOINT head
				{
					OFFSET 0.000000 3.148285 0.000000
					CHANNELS 3 Xrotation Zrotation Yrotation 
					End Site
					{
						OFFSET 0.000000 3.148289 0.000000
					}
				}
			}
			JOINT lCollar
			{
				OFFSET 3.422053 6.707223 -0.821293
				CHANNELS 3 Yrotation Zrotation Xrotation 
				JOINT lShldr
				{
					OFFSET 3.285171 0.000000 0.000000
					CHANNELS 3 Zrotation Yrotation Xrotation 
					JOINT lForeArm
					{
						OFFSET 10.129278 0.000000 0.000000
						CHANNELS 3 Yrotation Zrotation Xrotation 
						JOINT lHand
						{
							OFFSET 8.486692 0.000000 0.000000
							CHANNELS 3 Zrotation Yrotation Xrotation 
							End Site
							{
								OFFSET 4.106464 0.000000 0.000000
							}
						}
					}
				}
			}
			JOINT rCollar
			{
				OFFSET -3.558935 6.707223 -0.821293
				CHANNELS 3 Yrotation Zrotation Xrotation 
				JOINT rShldr
				{
					OFFSET -3.148289 0.000000 0.000000
					CHANNELS 3 Zrotation Yrotation Xrotation 
					JOINT rForeArm
					{
						OFFSET -10.266159 0.000000 0.000000
						CHANNELS 3 Yrotation Zrotation Xrotation 
						JOINT rHand
						{
							OFFSET -8.349810 0.000000 0.000000
							CHANNELS 3 Zrotation Yrotation Xrotation 
							End Site
							{
								OFFSET -4.106464 0.000000 0.000000
							}
						}
					}
				}
			}
		}
	}
	JOINT lThigh
	{
		OFFSET 5.338403 -1.642589 1.368821
		CHANNELS 3 Xrotation Zrotation Yrotation 
		JOINT lShin
		{
			OFFSET -2.053232 -20.121670 0.000000
			CHANNELS 3 Xrotation Zrotation Yrotation 
			JOINT lFoot
			{
				OFFSET 0.000000 -19.300380 -1.231939
				CHANNELS 3 Xrotation Yrotation Zrotation 
				End Site
				{
					OFFSET 0.000000 -2.463878 4.653993
				}
			}
		}
	}
	JOINT rThigh
	{
		OFFSET -5.338403 -1.642589 1.368821
		CHANNELS 3 Xrotation Zrotation Yrotation 
		JOINT rShin
		{
			OFFSET 2.053232 -20.121670 0.000000
			CHANNELS 3 Xrotation Zrotation Yrotation 
			JOINT rFoot
			{
				OFFSET 0.000000 -19.300380 -1.231939
				CHANNELS 3 Xrotation Yrotation Zrotation 
				End Site
				{
					OFFSET 0.000000 -2.463878 4.653993
				}
			}
		}
	}
}
MOTION
Frames: 20
Frame Time: 0.033264
0.000000 43.528500 0.000000 0.000000 0.000000 0.000000 0.000000 0.000000 0.000000 0.000000 0.000000 0.000000 0.000000 0.000000 0.000000 0.000000 0.000000 0.000000 0.000000 0.000000 0.000000 0.000000 0.000000 0.000000 0.000000 0.000000 0.000000 0.000000 0.000000 0.000000 0.000000 0.000000 0.000000 0.000000 0.000000 0.000000 0.000000 0.000000 0.000000 0.000000 0.000000 0.000000 0.000000 0.000000 0.000000 0.000000 0.000000 0.000000 0.000000 0.000000 0.000000 0.000000 0.000000 0.000000 0.000000 0.000000 0.000000 0.000000 0.000000 0.000000 
0.000000 6.459362 0.000000 -90.001343 -0.002114 46.999653 30.589304 -0.179651 -28.333553 30.665688 -0.834341 -20.733974 18.089588 -0.647625 11.864877 -0.134179 -4.384615 0.076879 2.427744 -22.999823 0.556466 -15.650093 -3.280725 0.957749 -90.891876 -6.202443 -67.554939 -7.000325 0.000000 0.000000 1.630062 -19.800713 -5.389437 -28.545778 5.275657 -5.564641 169.593094 -54.492413 37.922649 6.996825 0.000000 0.000000 -17.390663 14.048954 -0.895770 15.212471 -6.428585 -0.433561 13.611595 2.328721 5.489282 -10.302084 -40.809044 -30.494019 111.313499 -4.870153 -0.576962 23.422083 -1.952469 -4.545708 
0.000000 6.459362 0.000000 -90.001343 -0.002114 46.999653 30.589304 -0.179651 -28.333553 30.665688 -0.834342 -20.733976 18.182684 -0.645615 11.860712 0.172102 -4.322848 0.412615 2.427744 -22.999823 0.556466 -15.650093 -3.280725 0.957749 -90.891876 -6.202443 -67.554939 -7.000325 0.000000 0.000000 1.630062 -19.800713 -5.389437 -28.545778 5.275657 -5.564641 169.593094 -54.492413 37.922649 6.996825 0.000000 0.000000 -17.390663 14.048954 -0.895770 15.212471 -6.428586 -0.433561 13.611595 2.328721 5.489282 -10.414828 -40.672546 -30.333082 111.313499 -4.870153 -0.576962 23.422083 -1.952469 -4.545708 
0.000000 6.459362 0.000000 -90.001343 -0.002114 46.999653 30.589306 -0.179652 -28.333555 30.665688 -0.834341 -20.733974 18.275787 -0.643598 11.856546 0.479032 -4.262813 0.748999 2.427744 -22.999825 0.556466 -15.650093 -3.280725 0.957749 -90.891876 -6.202446 -67.554939 -7.000325 0.000000 0.000000 1.630062 -19.800713 -5.389437 -28.545780 5.275657 -5.564641 169.593094 -54.492413 37.922649 6.996825 0.000000 0.000000 -17.390663 14.048955 -0.895770 15.212472 -6.428585 -0.433561 13.611596 2.328721 5.489283 -10.526854 -40.535778 -30.172791 111.313499 -4.870153 -0.576962 23.422083 -1.952469 -4.545708 
0.000000 6.459362 0.000000 -90.001343 -0.002114 46.999653 30.589304 -0.179651 -28.333553 30.665688 -0.834342 -20.733976 18.368906 -0.641573 11.852386 0.786594 -4.204519 1.086010 2.427744 -22.999823 0.556466 -15.650093 -3.280725 0.957749 -90.891884 -6.202443 -67.554939 -7.000325 0.000000 0.000000 1.630062 -19.800713 -5.389437 -28.545780 5.275657 -5.564641 169.593079 -54.492413 37.922649 6.996825 0.000000 0.000000 -17.390663 14.048954 -0.895770 15.212471 -6.428586 -0.433561 13.611595 2.328721 5.489282 -10.638170 -40.398754 -30.013153 111.313515 -4.870154 -0.576963 23.422085 -1.952469 -4.545709 
0.000000 6.459362 0.000000 -90.001343 -0.002116 46.999653 30.589304 -0.179651 -28.333553 30.665688 -0.834341 -20.733974 18.462040 -0.639541 11.848228 1.094769 -4.147976 1.423631 2.427744 -22.999823 0.556466 -15.650093 -3.280725 0.957749 -90.891876 -6.202443 -67.554939 -7.000325 0.000000 0.000000 1.630062 -19.800713 -5.389437 -28.545780 5.275657 -5.564641 169.593094 -54.492413 37.922649 6.996825 0.000000 0.000000 -17.390663 14.048954 -0.895770 15.212471 -6.428585 -0.433561 13.611595 2.328721 5.489282 -10.748780 -40.261471 -29.854160 111.313499 -4.870154 -0.576962 23.422083 -1.952469 -4.545709 
0.000000 6.459362 0.000000 -90.001350 -0.002112 46.999653 30.589306 -0.179652 -28.333555 30.665688 -0.834342 -20.733976 18.555191 -0.637503 11.844074 1.403538 -4.093197 1.761843 2.427744 -22.999825 0.556466 -15.650093 -3.280725 0.957749 -90.891876 -6.202446 -67.554939 -7.000325 0.000000 0.000000 1.630062 -19.800713 -5.389438 -28.545780 5.275657 -5.564641 169.593094 -54.492416 37.922653 6.996826 0.000000 0.000000 -17.390665 14.048955 -0.895771 15.212471 -6.428586 -0.433561 13.611595 2.328721 5.489282 -10.858685 -40.123924 -29.695801 111.313499 -4.870153 -0.576962 23.422083 -1.952469 -4.545709 
0.000000 6.459362 0.000000 -90.001343 -0.002114 46.999653 30.589304 -0.179651 -28.333549 30.665688 -0.834341 -20.733974 18.648354 -0.635457 11.839921 1.712883 -4.040192 2.100627 2.427744 -22.999821 0.556466 -15.650091 -3.280725 0.957749 -90.891869 -6.202441 -67.554939 -7.000325 0.000000 0.000000 1.630062 -19.800713 -5.389437 -28.545776 5.275657 -5.564641 169.593094 -54.492413 37.922649 6.996825 0.000000 0.000000 -17.390659 14.048954 -0.895770 15.212469 -6.428585 -0.433561 13.611595 2.328721 5.489282 -10.967894 -39.986130 -29.538086 111.313492 -4.870152 -0.576962 23.422081 -1.952469 -4.545708 
0.000000 6.459362 0.000000 -90.001343 -0.002114 46.999653 30.589304 -0.179651 -28.333549 30.665688 -0.834341 -20.733974 18.741529 -0.633404 11.835771 2.022783 -3.988969 2.439963 2.427744 -22.999823 0.556466 -15.650093 -3.280725 0.957749 -90.891869 -6.202446 -67.554939 -7.000325 0.000000 0.000000 1.630062 -19.800711 -5.389436 -28.545774 5.275656 -5.564641 169.593079 -54.492413 37.922642 6.996825 0.000000 0.000000 -17.390663 14.048954 -0.895770 15.212469 -6.428585 -0.433561 13.611595 2.328721 5.489282 -11.076402 -39.848080 -29.381008 111.313492 -4.870153 -0.576962 23.422081 -1.952469 -4.545707 
0.000000 6.459362 0.000000 -90.001343 -0.002112 46.999653 30.589304 -0.179652 -28.333551 30.665688 -0.834341 -20.733974 18.834724 -0.631345 11.831627 2.333219 -3.939537 2.779832 2.427744 -22.999823 0.556466 -15.650093 -3.280725 0.957749 -90.891876 -6.202440 -67.554939 -7.000324 0.000000 0.000000 1.630062 -19.800713 -5.389437 -28.545778 5.275657 -5.564641 169.593094 -54.492413 37.922649 6.996824 0.000000 0.000000 -17.390663 14.048954 -0.895770 15.212469 -6.428585 -0.433561 13.611595 2.328721 5.489282 -11.184216 -39.709774 -29.224546 111.313499 -4.870153 -0.576962 23.422081 -1.952469 -4.545708 
0.000000 6.459362 0.000000 -90.001343 -0.002114 46.999653 30.589304 -0.179652 -28.333551 30.665688 -0.834341 -20.733974 18.927921 -0.629278 11.827480 2.644173 -3.891908 3.120215 2.427744 -22.999823 0.556466 -15.650091 -3.280725 0.957749 -90.891876 -6.202443 -67.554939 -7.000325 0.000000 0.000000 1.630062 -19.800713 -5.389436 -28.545778 5.275657 -5.564641 169.593079 -54.492409 37.922642 6.996825 0.000000 0.000000 -17.390661 14.048953 -0.895770 15.212471 -6.428585 -0.433561 13.611595 2.328721 5.489282 -11.291343 -39.571239 -29.068731 111.313499 -4.870153 -0.576962 23.422083 -1.952469 -4.545708 
0.000000 6.459362 0.000000 -90.001335 -0.002116 46.999653 30.589304 -0.179651 -28.333553 30.665688 -0.834341 -20.733974 19.021139 -0.627204 11.823339 2.955624 -3.846090 3.461092 2.427744 -22.999823 0.556466 -15.650093 -3.280725 0.957749 -90.891876 -6.202443 -67.554939 -7.000325 0.000000 0.000000 1.630062 -19.800713 -5.389437 -28.545778 5.275657 -5.564641 169.593094 -54.492413 37.922649 6.996825 0.000000 0.000000 -17.390663 14.048954 -0.895770 15.212471 -6.428585 -0.433561 13.611595 2.328721 5.489282 -11.397780 -39.432446 -28.913527 111.313499 -4.870153 -0.576962 23.422083 -1.952469 -4.545708 
0.000000 6.459362 0.000000 -90.001343 -0.002114 46.999653 30.589304 -0.179651 -28.333553 30.665688 -0.834341 -20.733974 19.114374 -0.625123 11.819202 3.267552 -3.802090 3.802442 2.427744 -22.999823 0.556466 -15.650093 -3.280725 0.957749 -90.891876 -6.202443 -67.554939 -7.000325 0.000000 0.000000 1.630062 -19.800713 -5.389437 -28.545778 5.275657 -5.564641 169.593094 -54.492413 37.922649 6.996825 0.000000 0.000000 -17.390663 14.048954 -0.895770 15.212471 -6.428585 -0.433561 13.611595 2.328721 5.489282 -11.503543 -39.293427 -28.758945 111.313499 -4.870153 -0.576962 23.422083 -1.952469 -4.545708 
0.000000 6.459362 0.000000 -90.001343 -0.002114 46.999653 30.589304 -0.179651 -28.333553 30.665688 -0.834341 -20.733974 19.207611 -0.623035 11.815064 3.579935 -3.759917 4.144244 2.427744 -22.999823 0.556466 -15.650093 -3.280725 0.957749 -90.891876 -6.202443 -67.554939 -7.000325 0.000000 0.000000 1.630062 -19.800713 -5.389437 -28.545778 5.275657 -5.564641 169.593094 -54.492413 37.922649 6.996825 0.000000 0.000000 -17.390663 14.048954 -0.895770 15.212471 -6.428585 -0.433561 13.611595 2.328721 5.489282 -11.608621 -39.154163 -28.604988 111.313499 -4.870153 -0.576962 23.422083 -1.952469 -4.545708 
0.000000 6.459362 0.000000 -90.001343 -0.002114 46.999653 30.589304 -0.179651 -28.333553 30.665688 -0.834342 -20.733976 19.300871 -0.620940 11.810932 3.892755 -3.719580 4.486480 2.427744 -22.999823 0.556466 -15.650093 -3.280725 0.957749 -90.891876 -6.202443 -67.554939 -7.000325 0.000000 0.000000 1.630062 -19.800713 -5.389437 -28.545780 5.275657 -5.564641 169.593094 -54.492413 37.922649 6.996825 0.000000 0.000000 -17.390663 14.048954 -0.895770 15.212471 -6.428586 -0.433561 13.611595 2.328721 5.489282 -11.713025 -39.014660 -28.451637 111.313507 -4.870154 -0.576962 23.422083 -1.952469 -4.545708 
0.000000 6.459362 0.000000 -90.001343 -0.002114 46.999653 30.589304 -0.179651 -28.333553 30.665688 -0.834341 -20.733974 19.394135 -0.618838 11.806801 4.205991 -3.681085 4.829128 2.427744 -22.999823 0.556466 -15.650093 -3.280725 0.957749 -90.891876 -6.202443 -67.554939 -7.000325 0.000000 0.000000 1.630062 -19.800713 -5.389437 -28.545782 5.275657 -5.564641 169.593094 -54.492424 37.922657 6.996825 0.000000 0.000000 -17.390663 14.048955 -0.895770 15.212471 -6.428585 -0.433561 13.611596 2.328722 5.489283 -11.816752 -38.874928 -28.298899 111.313499 -4.870153 -0.576962 23.422083 -1.952469 -4.545708 
0.000000 6.459362 0.000000 -90.001343 -0.002114 46.999653 30.589306 -0.179652 -28.333557 30.665688 -0.834342 -20.733976 19.487417 -0.616729 11.802676 4.519622 -3.644439 5.172168 2.427744 -22.999823 0.556466 -15.650093 -3.280725 0.957749 -90.891876 -6.202446 -67.554939 -7.000325 0.000000 0.000000 1.630062 -19.800713 -5.389437 -28.545778 5.275657 -5.564641 169.593094 -54.492416 37.922653 6.996825 0.000000 0.000000 -17.390663 14.048955 -0.895770 15.212471 -6.428586 -0.433561 13.611595 2.328721 5.489282 -11.919811 -38.734943 -28.146753 111.313499 -4.870153 -0.576962 23.422083 -1.952469 -4.545709 
0.000000 6.459362 0.000000 -90.001343 -0.002114 46.999653 30.589304 -0.179651 -28.333555 30.665688 -0.834342 -20.733974 19.580706 -0.614612 11.798550 4.833625 -3.609650 5.515576 2.427744 -22.999825 0.556466 -15.650093 -3.280725 0.957749 -90.891876 -6.202446 -67.554939 -7.000326 0.000000 0.000000 1.630062 -19.800713 -5.389437 -28.545778 5.275657 -5.564641 169.593094 -54.492420 37.922657 6.996825 0.000000 0.000000 -17.390663 14.048955 -0.895770 15.212471 -6.428585 -0.433561 13.611595 2.328721 5.489282 -12.022209 -38.594753 -27.995222 111.313499 -4.870153 -0.576962 23.422083 -1.952469 -4.545709 
0.000000 6.459362 0.000000 -90.001343 -0.002114 46.999653 30.589304 -0.179651 -28.333551 30.665688 -0.834341 -20.733974 19.674011 -0.612490 11.794427 5.147984 -3.576725 5.859337 2.427744 -22.999821 0.556466 -15.650091 -3.280725 0.957749 -90.891869 -6.202446 -67.554939 -7.000324 0.000000 0.000000 1.630062 -19.800713 -5.389437 -28.545776 5.275656 -5.564641 169.593094 -54.492413 37.922646 6.996825 0.000000 0.000000 -17.390661 14.048953 -0.895770 15.212471 -6.428585 -0.433561 13.611594 2.328721 5.489282 -12.123941 -38.454327 -27.844286 111.313492 -4.870153 -0.576962 23.422083 -1.952469 -4.545708 
0.000000 6.459362 0.000000 -90.001343 -0.002114 46.999653 30.589304 -0.179651 -28.333553 30.665686 -0.834341 -20.733973 19.767332 -0.610360 11.790310 5.462674 -3.545668 6.203425 2.427744 -22.999823 0.556466 -15.650093 -3.280725 0.957749 -90.891876 -6.202440 -67.554939 -7.000325 0.000000 0.000000 1.630062 -19.800713 -5.389437 -28.545778 5.275656 -5.564641 169.593094 -54.492413 37.922649 6.996825 0.000000 0.000000 -17.390659 14.048954 -0.895770 15.212471 -6.428585 -0.433561 13.611595 2.328721 5.489282 -12.225019 -38.313690 -27.693956 111.313507 -4.870153 -0.576962 23.422083 -1.952469 -4.545708 
